<?xml version="1.0" encoding="utf-8"?>
<!-- Generator: Adobe Illustrator 16.0.0, SVG Export Plug-In . SVG Version: 6.00 Build 0)  -->
<!DOCTYPE svg PUBLIC "-//W3C//DTD SVG 1.1//EN" "http://www.w3.org/Graphics/SVG/1.1/DTD/svg11.dtd">
<svg version="1.1" id="Layer_1" xmlns="http://www.w3.org/2000/svg" xmlns:xlink="http://www.w3.org/1999/xlink" x="0px" y="0px"
	  viewBox="0 0 200.948 149.245" enable-background="new 0 0 200.948 149.245"
	 xml:space="preserve">
<g>
	<polygon fill="#29B99A" points="105.518,73.301 156.055,51.153 105.518,26.28 105.518,0 190.947,44.649 190.947,59.766 
		105.518,99.405 	"/>
	<polygon fill="#29B99A" points="176.766,77.343 200.947,89.982 200.947,105.099 105.518,149.245 105.518,123.017 166.055,96.486 
		151.232,89.19 	"/>
	<polygon fill="#29B99A" points="127.637,103.607 105.518,113.3 105.518,73.3 127.637,63.607 	"/>
	<polygon fill="#29B99A" points="105.518,63.301 127.637,53.608 127.637,11.56 105.518,1.56 	"/>
	<polygon fill="#757A82" points="85.518,127.045 0,87.406 0,72.29 85.518,27.642 85.518,53.92 34.893,78.793 85.518,100.941 	"/>
</g>
</svg>
